<?xml version="1.0" encoding="UTF-8" standalone="no"?>
<!-- Created with Inkscape (http://www.inkscape.org/) -->

<svg
   width="1200"
   height="300"
   viewBox="0 0 1200 300"
   version="1.1"
   id="svg1"
   sodipodi:docname="aboutus.svg"
   inkscape:version="1.4 (e7c3feb1, 2024-10-09)"
   xmlns:inkscape="http://www.inkscape.org/namespaces/inkscape"
   xmlns:sodipodi="http://sodipodi.sourceforge.net/DTD/sodipodi-0.dtd"
   xmlns="http://www.w3.org/2000/svg"
   xmlns:svg="http://www.w3.org/2000/svg">
  <sodipodi:namedview
     id="namedview1"
     pagecolor="#ffffff"
     bordercolor="#000000"
     borderopacity="0.25"
     inkscape:showpageshadow="2"
     inkscape:pageopacity="0.0"
     inkscape:pagecheckerboard="0"
     inkscape:deskcolor="#d1d1d1"
     inkscape:zoom="0.32900149"
     inkscape:cx="582.06423"
     inkscape:cy="-12.158"
     inkscape:window-width="1360"
     inkscape:window-height="629"
     inkscape:window-x="0"
     inkscape:window-y="37"
     inkscape:window-maximized="0"
     inkscape:current-layer="svg1" />
  <defs
     id="defs1">
    <rect
       x="0"
       y="0"
       width="1436.1322"
       height="244.76888"
       id="rect1" />
  </defs>
  <path
     style="fill:#ff7d29;stroke-width:3.0395"
     d="m 65.349248,211.071 c 0,-2.47861 73.314552,-126.769715 77.552082,-131.475028 2.85192,-3.166754 11.62426,9.692864 42.50532,62.309748 21.40147,36.46501 39.47045,67.32585 40.15331,68.57965 0.68285,1.25379 -35.08521,2.27962 -79.48458,2.27962 -44.39937,0 -80.726132,-0.76229 -80.726132,-1.69399 z"
     id="path1" />
  <path
     style="fill:#ff7d29;stroke-width:3.0395"
     d="M 232.52174,147.41574 V 82.066497 h 39.66444 c 43.0684,0 51.84349,2.361755 63.41018,17.066425 7.32101,9.307148 8.44419,27.536138 2.22103,36.046818 -3.58667,4.90506 -3.18913,7.02419 3.0395,16.20259 3.94122,5.80771 7.16585,14.15132 7.16585,18.54136 0,13.31514 -10.28438,28.48629 -24.35436,35.92667 -11.64018,6.15547 -17.36148,6.91463 -52.1112,6.91463 h -39.03544 z"
     id="path2" />
  <path
     style="fill:#ff7d29;stroke-width:3.0395"
     d="M 398.17449,210.09376 C 337.47635,182.24977 346.65268,94.66813 411.90836,79.013533 c 44.13259,-10.587244 90.04988,30.352807 83.95075,74.850827 -3.52193,25.69526 -19.8922,47.93618 -42.11613,57.21964 -15.15779,6.33177 -40.59513,5.87848 -55.56849,-0.99024 z"
     id="path3" />
  <path
     style="fill:#ff7d29;stroke-width:3.0395"
     d="m 552.3953,211.74716 c -14.95277,-5.42293 -30.36173,-19.02859 -37.72711,-33.31195 -5.54647,-10.75602 -6.81174,-19.40806 -7.98107,-54.57559 l -1.38963,-41.793123 h 67.25862 67.25862 v 35.128043 c 0,46.5198 -3.52445,59.52989 -21.0085,77.55034 -19.1694,19.7575 -42.40875,25.70716 -66.41093,17.00228 z"
     id="path4" />
  <path
     style="fill:#ff7d29;stroke-width:3.0395"
     d="m 679.32823,179.33049 v -33.4345 H 665.65048 651.97273 V 113.98125 82.066497 h 57.7505 57.75049 v 31.914753 31.91474 h -12.158 -12.158 v 33.4345 33.4345 h -31.91474 -31.91475 z"
     id="path5" />
  <path
     style="fill:#ff7d29;stroke-width:3.0395"
     d="m 895.15153,207.68483 c -10.86632,-5.59479 -19.88974,-13.1962 -25.83575,-21.76427 -9.01781,-12.9945 -9.15011,-13.75969 -10.11617,-58.51037 l -0.97885,-45.343693 h 65.56823 65.56823 l -0.0668,40.273373 c -0.0737,44.48774 -3.45673,56.90461 -19.95167,73.23022 -12.30824,12.18188 -23.84008,17.47186 -41.87345,19.20852 -12.99614,1.25157 -18.41627,0.0617 -32.31381,-7.09378 z"
     id="path6" />
  <path
     style="fill:#ff7d29;stroke-width:3.0395"
     d="m 1001.5152,181.01678 v -31.74821 l 14.4376,-0.92949 14.4377,-0.92949 -11.0009,-4.99497 C 996.07708,131.82953 991.41601,109.7948 1008.81,92.400797 l 10.3343,-10.3343 h 55.015 55.0149 v 31.739983 31.73998 l -12.9179,0.93464 -12.9178,0.93464 11.4448,6.76395 c 20.1723,11.92189 22.5129,36.01318 4.9358,50.80333 -9.1701,7.71618 -9.7089,7.78197 -63.7261,7.78197 h -54.4778 z"
     id="path7" />
  <g
     id="layer1" />
</svg>
