<?xml version="1.0" encoding="UTF-8" standalone="no"?>
<!-- Created with Inkscape (http://www.inkscape.org/) -->

<svg
   width="1200"
   height="300"
   viewBox="0 0 1200 300"
   version="1.1"
   id="svg1"
   sodipodi:docname="clients.svg"
   inkscape:version="1.4 (e7c3feb1, 2024-10-09)"
   xmlns:inkscape="http://www.inkscape.org/namespaces/inkscape"
   xmlns:sodipodi="http://sodipodi.sourceforge.net/DTD/sodipodi-0.dtd"
   xmlns="http://www.w3.org/2000/svg"
   xmlns:svg="http://www.w3.org/2000/svg">
  <sodipodi:namedview
     id="namedview1"
     pagecolor="#ffffff"
     bordercolor="#000000"
     borderopacity="0.25"
     inkscape:showpageshadow="2"
     inkscape:pageopacity="0.0"
     inkscape:pagecheckerboard="0"
     inkscape:deskcolor="#d1d1d1"
     inkscape:zoom="0.47453097"
     inkscape:cx="487.85014"
     inkscape:cy="101.15251"
     inkscape:window-width="1440"
     inkscape:window-height="465"
     inkscape:window-x="0"
     inkscape:window-y="37"
     inkscape:window-maximized="0"
     inkscape:current-layer="layer1" />
  <defs
     id="defs1">
    <rect
       x="0"
       y="0"
       width="1436.1322"
       height="244.76888"
       id="rect1" />
  </defs>
  <g
     id="layer1">
    <path
       style="fill:#ff7d29;stroke-width:2.10734"
       d="m 225.59642,213.69527 c -21.16088,-6.76088 -37.94998,-22.56945 -45.66751,-43.0004 -3.46758,-9.17988 -4.18361,-14.87746 -3.44284,-27.39548 2.18588,-36.93879 27.86603,-62.61894 64.80482,-64.804822 17.67875,-1.046153 33.70217,3.563561 45.3079,13.034443 l 6.32203,5.159112 -24.76194,24.918447 -24.76193,24.91844 25.3024,25.23648 25.3024,25.23648 -4.75515,3.85682 c -16.51578,13.39566 -44.34246,19.00927 -63.65018,12.84048 z"
       id="path1" />
    <path
       style="fill:#ff7d29;stroke-width:2.10734"
       d="M 302.40387,146.46041 V 80.079073 h 32.66383 32.66383 v 33.717507 33.7175 h 18.9661 18.9661 v 32.66383 32.66384 H 354.0338 302.40387 Z"
       id="path2" />
    <path
       style="fill:#ff7d29;stroke-width:2.10734"
       d="M 418.30779,146.46041 V 80.079073 h 33.7175 33.71751 v 66.381337 66.38134 h -33.71751 -33.7175 z"
       id="path3" />
    <path
       style="fill:#ff7d29;stroke-width:2.10734"
       d="M 498.38686,146.46041 V 80.079073 h 54.79095 54.79094 v 22.127117 22.12711 h -13.69773 c -12.29284,0 -13.69774,0.43227 -13.69774,4.21469 0,3.78241 1.4049,4.21468 13.69774,4.21468 h 13.69773 v 14.75141 14.75141 h -13.69773 c -12.29284,0 -13.69774,0.43228 -13.69774,4.21469 0,3.78241 1.4049,4.21469 13.69774,4.21469 h 13.69773 v 21.07344 21.07344 h -54.79094 -54.79095 z"
       id="path4" />
    <path
       style="fill:#ff7d29;stroke-width:2.10734"
       d="m 622.72016,146.1338 c 0,-63.319038 0.18735,-66.548917 3.68785,-63.577504 10.56319,8.966607 61.39908,48.099034 62.48417,48.099034 0.69464,0 1.26299,-11.37966 1.26299,-25.28813 V 80.079073 h 31.61016 31.61016 v 66.381337 66.38134 h -65.32766 -65.32767 z"
       id="path5" />
    <path
       style="fill:#ff7d29;stroke-width:2.10734"
       d="m 793.41503,179.12424 v -33.7175 H 779.71729 766.01955 V 112.74291 80.079073 h 59.00564 59.00563 v 32.663837 32.66383 h -12.64406 -12.64407 v 33.7175 33.71751 h -32.66383 -32.66383 z"
       id="path6" />
    <path
       style="fill:#ff7d29;stroke-width:2.10734"
       d="m 894.56754,180.17791 v -32.66383 l 14.22457,-0.077 14.22457,-0.0769 -11.24503,-5.43889 c -13.65413,-6.60409 -19.29265,-14.88208 -19.30358,-28.3399 -0.0102,-12.55747 6.5316,-22.515024 18.89492,-28.760783 8.96577,-4.529367 11.6759,-4.741524 60.56913,-4.741524 h 51.18338 v 33.717507 33.7175 l -12.1172,0.0347 -12.11723,0.0347 8.36703,4.73894 c 22.8949,12.96723 24.3493,43.126 2.7158,56.31608 -6.3829,3.89167 -10.70234,4.18811 -61.13225,4.19543 l -54.26411,0.008 z"
       id="path7" />
  </g>
</svg>
