<?xml version="1.0" encoding="UTF-8" standalone="no"?>
<!-- Created with Inkscape (http://www.inkscape.org/) -->

<svg
   width="1400"
   height="300"
   viewBox="0 0 1400 300"
   version="1.1"
   id="svg1"
   sodipodi:docname="contactus.svg"
   inkscape:version="1.4 (e7c3feb1, 2024-10-09)"
   xmlns:inkscape="http://www.inkscape.org/namespaces/inkscape"
   xmlns:sodipodi="http://sodipodi.sourceforge.net/DTD/sodipodi-0.dtd"
   xmlns="http://www.w3.org/2000/svg"
   xmlns:svg="http://www.w3.org/2000/svg">
  <sodipodi:namedview
     id="namedview1"
     pagecolor="#ffffff"
     bordercolor="#000000"
     borderopacity="0.25"
     inkscape:showpageshadow="2"
     inkscape:pageopacity="0.0"
     inkscape:pagecheckerboard="0"
     inkscape:deskcolor="#d1d1d1"
     inkscape:zoom="0.34584395"
     inkscape:cx="578.2955"
     inkscape:cy="196.62047"
     inkscape:window-width="1416"
     inkscape:window-height="619"
     inkscape:window-x="0"
     inkscape:window-y="37"
     inkscape:window-maximized="0"
     inkscape:current-layer="svg1" />
  <defs
     id="defs1">
    <rect
       x="0"
       y="0"
       width="1436.1322"
       height="244.76888"
       id="rect1" />
  </defs>
  <path
     style="fill:#feffd2;stroke-width:1.95865;fill-opacity:1"
     d="m 108.22906,217.28911 c -13.854792,-5.47733 -30.334835,-20.90178 -37.14135,-34.76233 -4.825311,-9.8261 -5.472931,-13.34671 -5.472931,-29.75207 0,-15.95406 0.724533,-20.14319 5.081379,-29.37975 6.746493,-14.30264 19.488436,-26.678706 35.070952,-34.063911 11.03354,-5.229258 14.82068,-6.018397 28.40042,-5.917896 16.95031,0.125445 28.93795,4.106641 41.71901,13.855237 l 6.67898,5.0943 -25.15006,25.20601 -25.15006,25.20601 25.13648,25.1924 25.13648,25.1924 -5.57824,3.93158 c -14.48404,10.20846 -22.81362,12.98888 -40.83394,13.63036 -14.25968,0.50761 -19.59001,-0.14821 -27.89712,-3.43234 z"
     id="path1" />
  <path
     style="fill:#feffd2;stroke-width:1.95865;fill-opacity:1"
     d="m 236.49902,221.15967 c -19.56806,-4.61185 -40.51325,-21.91319 -49.07618,-40.53838 -3.41411,-7.42601 -4.25186,-12.92799 -4.26843,-28.03314 -0.0194,-17.63571 0.40178,-19.62089 6.83465,-32.21773 8.15546,-15.97002 21.3927,-27.718652 38.49987,-34.170315 16.22343,-6.118375 38.18377,-4.933014 54.10033,2.920193 29.77599,14.691422 45.7458,48.233022 37.80137,79.394722 -9.58758,37.60693 -47.29533,61.26974 -83.89161,52.64465 z"
     id="path2" />
  <path
     style="fill:#feffd2;stroke-width:1.95865;fill-opacity:1"
     d="M 332.97052,151.62674 V 83.884663 l 12.24157,9.663856 c 32.60523,25.739541 53.51077,41.596161 54.8422,41.597201 0.80794,6.3e-4 1.46899,-11.01627 1.46899,-24.48199 V 86.180606 h 32.31772 32.31773 v 66.594104 66.5941 h -66.5941 -66.59411 z"
     id="path3" />
  <path
     style="fill:#feffd2;stroke-width:1.95865;fill-opacity:1"
     d="M 505.33173,186.07176 V 152.77471 H 491.62118 477.91063 V 119.47766 86.180606 h 58.75951 58.7595 v 33.297054 33.29705 h -12.73123 -12.73122 v 33.29705 33.29705 h -32.31773 -32.31773 z"
     id="path4" />
  <path
     style="fill:#feffd2;stroke-width:1.95865;fill-opacity:1"
     d="m 576.40487,217.89983 c 0.4361,-0.80795 19.13208,-32.62849 41.54661,-70.71231 34.233,-58.164205 41.07483,-68.662748 42.76072,-65.614782 1.10387,1.995699 19.07139,32.509852 39.92782,67.809222 20.85644,35.29938 38.42211,65.48707 39.03482,67.08377 0.97343,2.53673 -9.30833,2.90308 -81.47444,2.90308 -45.42364,0 -82.23164,-0.66104 -81.79553,-1.46898 z"
     id="path5" />
  <path
     style="fill:#feffd2;stroke-width:1.95865;fill-opacity:1"
     d="m 775.63601,218.06045 c -18.28936,-6.39886 -33.04285,-20.29701 -41.58906,-39.17791 -3.29415,-7.27768 -4.30103,-13.30704 -4.36571,-26.1427 -0.0753,-14.95467 0.57552,-18.02386 6.28141,-29.61984 7.5633,-15.37073 19.87916,-27.411396 35.40245,-34.611392 16.10602,-7.470273 37.70839,-7.355224 54.20016,0.288655 6.46037,2.99436 13.75991,7.336134 16.22119,9.648386 l 4.47505,4.204091 -25.00685,25.06249 -25.00685,25.06248 25.15006,25.20601 25.15005,25.20601 -6.94508,5.29727 c -16.21663,12.36903 -44.06753,16.53858 -63.96682,9.57645 z"
     id="path6" />
  <path
     style="fill:#feffd2;stroke-width:1.95865;fill-opacity:1"
     d="M 881.39256,186.07176 V 152.77471 H 867.68201 853.97146 V 119.47766 86.180606 h 59.73883 59.73883 v 33.297054 33.29705 h -12.73123 -12.73123 v 33.29705 33.29705 h -33.29705 -33.29705 z"
     id="path7" />
  <path
     style="fill:#feffd2;stroke-width:1.95865;fill-opacity:1"
     d="m 1103.8816,216.59797 c -6.3633,-2.68198 -14.7365,-7.41458 -18.6072,-10.51688 -7.9152,-6.34399 -18.8669,-23.30766 -21.7522,-33.69301 -1.0516,-3.78518 -1.9169,-24.73034 -1.9229,-46.54481 l -0.011,-39.662664 h 65.6148 65.6147 v 41.058174 c 0,36.62064 -0.4347,42.22018 -4.0226,51.8095 -12.4325,33.22902 -52.8057,51.08244 -84.9137,37.54969 z"
     id="path8" />
  <path
     style="fill:#feffd2;stroke-width:1.95865;fill-opacity:1"
     d="m 1204.5698,187.05109 v -32.31773 h 13.7106 c 7.5408,0 13.7074,-0.66104 13.7036,-1.46899 0,-0.80794 -4.5987,-3.67247 -10.2108,-6.36561 -11.3204,-5.43243 -16.7286,-11.63144 -18.9288,-21.69674 -3.1762,-14.53018 3.3027,-27.393393 17.4347,-34.614451 8.3093,-4.245871 10.5425,-4.406963 61.0931,-4.406963 h 52.4685 v 33.203594 33.20359 l -12.2415,0.58312 -12.2416,0.58313 6.8553,3.1752 c 25.09,11.62113 26.2824,45.78914 2.0252,58.03261 -8.4068,4.24322 -10.6807,4.40696 -61.1997,4.40696 h -52.4686 z"
     id="path9" />
  <g
     id="layer1" />
</svg>
