<?xml version="1.0" encoding="UTF-8" standalone="no"?>
<!-- Created with Inkscape (http://www.inkscape.org/) -->

<svg
   width="1200"
   height="300"
   viewBox="0 0 1200 300"
   version="1.1"
   id="svg1"
   sodipodi:docname="services.svg"
   inkscape:version="1.4 (e7c3feb1, 2024-10-09)"
   xmlns:inkscape="http://www.inkscape.org/namespaces/inkscape"
   xmlns:sodipodi="http://sodipodi.sourceforge.net/DTD/sodipodi-0.dtd"
   xmlns="http://www.w3.org/2000/svg"
   xmlns:svg="http://www.w3.org/2000/svg">
  <sodipodi:namedview
     id="namedview1"
     pagecolor="#ffffff"
     bordercolor="#000000"
     borderopacity="0.25"
     inkscape:showpageshadow="2"
     inkscape:pageopacity="0.0"
     inkscape:pagecheckerboard="0"
     inkscape:deskcolor="#d1d1d1"
     inkscape:zoom="0.39679273"
     inkscape:cx="371.7306"
     inkscape:cy="57.964771"
     inkscape:window-width="1344"
     inkscape:window-height="617"
     inkscape:window-x="0"
     inkscape:window-y="37"
     inkscape:window-maximized="0"
     inkscape:current-layer="svg1" />
  <defs
     id="defs1">
    <rect
       x="0"
       y="0"
       width="1436.1322"
       height="244.76888"
       id="rect1" />
  </defs>
  <path
     style="fill:#ff7d29;stroke-width:2.52021"
     d="m 102.0684,180.32885 v -32.89671 l 14.49119,-0.10042 14.4912,-0.10042 -10.08083,-4.95705 c -5.54446,-2.72637 -12.02929,-7.29848 -14.41073,-10.16024 -10.924811,-13.12823 -6.59947,-35.842334 8.58861,-45.102249 7.67487,-4.679243 12.6271,-5.086932 61.89673,-5.095598 l 53.55441,-0.0094 v 32.762697 32.7627 l -11.97098,0.11138 -11.97099,0.11138 9.40507,4.96579 c 19.16497,10.11893 22.75738,35.63312 7.20793,51.19263 l -7.87901,7.88411 -56.6613,0.76406 -56.6613,0.76408 z"
     id="path1" />
  <path
     style="fill:#ff7d29;stroke-width:2.52021"
     d="M 243.20002,147.43214 V 81.906742 h 54.18446 54.18446 v 21.421768 21.42176 H 337.7078 c -10.64088,0 -13.86114,0.87825 -13.86114,3.78031 0,2.90206 3.22026,3.78031 13.86114,3.78031 h 13.86114 v 15.12125 15.12124 H 337.7078 c -10.64088,0 -13.86114,0.87825 -13.86114,3.78031 0,2.90206 3.22026,3.78031 13.86114,3.78031 h 13.86114 v 21.42177 21.42176 h -54.18446 -54.18446 z"
     id="path2" />
  <path
     style="fill:#ff7d29;stroke-width:2.52021"
     d="M 366.69018,147.43214 V 81.906742 h 37.26911 c 33.64822,0 38.35808,0.550915 48.47776,5.670467 31.01775,15.691911 38.87141,53.315151 16.92121,81.061711 l -7.80484,9.86586 9.42076,17.22637 9.42076,17.22638 h -56.85238 -56.85238 z"
     id="path3" />
  <path
     style="fill:#ff7d29;stroke-width:2.52021"
     d="M 515.691,151.98258 475.03567,83.166846 554.81803,82.50087 c 43.8803,-0.366287 80.3157,-0.132642 80.96755,0.519211 0.91835,0.918353 -46.31784,83.066089 -75.15885,130.707579 l -4.2804,7.07066 z"
     id="path4" />
  <path
     style="fill:#ff7d29;stroke-width:2.52021"
     d="M 643.913,147.43214 V 81.906742 h 34.0228 34.0228 v 65.525398 65.52539 H 677.9358 643.913 Z"
     id="path5" />
  <path
     style="fill:#ff7d29;stroke-width:2.52021"
     d="m 763.62286,210.77165 c -25.37448,-11.56706 -39.2397,-31.61183 -41.01642,-59.29691 -0.95468,-14.87592 -0.15868,-20.43874 4.46138,-31.17835 6.31326,-14.67557 22.47287,-30.983394 37.01498,-37.354466 14.19214,-6.217751 39.72644,-5.91082 53.72452,0.645788 24.46096,11.457359 24.60598,9.961489 -3.73303,38.506648 l -25.15479,25.33778 24.62656,24.71932 c 23.3885,23.47658 24.39745,24.92667 20.06906,28.84381 -15.56737,14.08827 -49.98688,18.89592 -69.99226,9.77638 z"
     id="path6" />
  <path
     style="fill:#ff7d29;stroke-width:2.52021"
     d="M 848.0498,147.43214 V 81.906742 h 54.18446 54.18446 v 21.421768 21.42176 h -13.86114 c -10.64087,0 -13.86114,0.87825 -13.86114,3.78031 0,2.90206 3.22027,3.78031 13.86114,3.78031 h 13.86114 v 15.12125 15.12124 h -13.86114 c -10.64087,0 -13.86114,0.87825 -13.86114,3.78031 0,2.90206 3.22027,3.78031 13.86114,3.78031 h 13.86114 v 21.42177 21.42176 H 902.23426 848.0498 Z"
     id="path7" />
  <path
     style="fill:#ff7d29;stroke-width:2.52021"
     d="m 969.01976,180.19483 v -32.76269 l 14.4912,-0.17802 14.49119,-0.17802 -10.08083,-4.52838 c -13.377,-6.00902 -19.05004,-12.80839 -20.65206,-24.75231 -1.66438,-12.4089 4.11375,-24.249168 15.10394,-30.950283 7.33251,-4.470893 12.95236,-4.920403 61.6227,-4.928964 l 53.5544,-0.0094 v 32.762697 32.7627 l -11.9709,0.0579 -11.971,0.0579 9.3793,5.43704 c 16.7437,9.7061 21.7518,29.617 11.3367,45.07196 -9.5212,14.12862 -12.8713,14.82261 -71.7502,14.86346 l -53.55444,0.0371 z"
     id="path8" />
  <g
     id="layer1" />
</svg>
