<?xml version="1.0" encoding="UTF-8" standalone="no"?>
<!-- Created with Inkscape (http://www.inkscape.org/) -->

<svg
   width="1600"
   height="300"
   viewBox="0 0 1600 300"
   version="1.1"
   id="svg1"
   inkscape:export-filename="contactus.svg"
   inkscape:export-xdpi="96"
   inkscape:export-ydpi="96"
   inkscape:version="1.4 (e7c3feb1, 2024-10-09)"
   sodipodi:docname="testimonials.svg"
   xmlns:inkscape="http://www.inkscape.org/namespaces/inkscape"
   xmlns:sodipodi="http://sodipodi.sourceforge.net/DTD/sodipodi-0.dtd"
   xmlns="http://www.w3.org/2000/svg"
   xmlns:svg="http://www.w3.org/2000/svg">
  <sodipodi:namedview
     id="namedview1"
     pagecolor="#ffffff"
     bordercolor="#000000"
     borderopacity="0.25"
     inkscape:showpageshadow="2"
     inkscape:pageopacity="0.0"
     inkscape:pagecheckerboard="0"
     inkscape:deskcolor="#d1d1d1"
     inkscape:document-units="px"
     inkscape:zoom="0.40010157"
     inkscape:cx="1024.7398"
     inkscape:cy="257.43463"
     inkscape:window-width="1104"
     inkscape:window-height="545"
     inkscape:window-x="0"
     inkscape:window-y="37"
     inkscape:window-maximized="0"
     inkscape:current-layer="layer1" />
  <defs
     id="defs1">
    <rect
       x="0"
       y="0"
       width="1602.7952"
       height="232.57402"
       id="rect1" />
  </defs>
  <g
     inkscape:label="Layer 1"
     inkscape:groupmode="layer"
     id="layer1">
    <path
       style="fill:#feffd2;stroke-width:2.49937"
       d="M 64.983499,186.20272 V 152.46129 H 51.236989 37.49048 V 119.96954 87.477787 h 58.735085 58.735085 v 32.491753 32.49175 H 142.46382 129.967 v 33.74143 33.74143 H 97.475248 64.983499 Z"
       id="path1" />
    <path
       style="fill:#feffd2;stroke-width:2.49937"
       d="M 167.45748,152.46129 V 87.477787 h 54.98603 54.98604 V 108.72239 129.967 h -13.74651 c -10.55287,0 -13.74651,0.87099 -13.74651,3.74905 0,2.87805 3.19364,3.74904 13.74651,3.74904 h 13.74651 v 14.9962 14.99619 h -13.74651 c -10.55287,0 -13.74651,0.87099 -13.74651,3.74905 0,2.87805 3.19364,3.74904 13.74651,3.74904 h 13.74651 v 21.24461 21.2446 h -54.98604 -54.98603 z"
       id="path2" />
    <path
       style="fill:#feffd2;stroke-width:2.49937"
       d="m 289.92638,187.4524 v -32.49175 h 13.74651 c 14.8389,0 18.41042,-3.57719 6.2403,-6.25019 -20.01257,-4.3955 -29.20844,-27.83691 -18.21854,-46.44133 8.16409,-13.820712 12.87072,-14.791343 71.7238,-14.791343 h 53.97556 v 32.354803 32.35481 l -11.87199,0.76178 -11.87198,0.76179 9.21753,5.44777 c 25.14522,14.86141 20.36625,50.45616 -7.82577,58.28792 -4.88942,1.35829 -30.54061,2.47588 -57.00264,2.48355 l -48.11278,0.0139 z"
       id="path3" />
    <path
       style="fill:#feffd2;stroke-width:2.49937"
       d="M 454.88449,186.20272 V 152.46129 H 441.13798 427.39147 V 119.96954 87.477787 h 58.73509 58.73508 v 32.491753 32.49175 h -12.49682 -12.49683 v 33.74143 33.74143 h -32.49175 -32.49175 z"
       id="path4" />
    <path
       style="fill:#feffd2;stroke-width:2.49937"
       d="M 557.35847,152.46129 V 87.477787 h 33.74143 33.74143 v 64.983503 64.98349 H 591.0999 557.35847 Z"
       id="path5" />
    <path
       style="fill:#feffd2;stroke-width:2.49937"
       d="m 639.83752,151.0641 c 0,-52.433445 0.65643,-65.988649 3.12421,-64.514807 1.71831,1.026234 16.43038,11.88059 32.69348,24.120787 l 29.56927,22.25491 31.66518,-24.11383 31.66518,-24.113826 1.57881,7.013798 c 0.86835,3.857589 1.71188,33.725768 1.87452,66.373728 l 0.29572,59.35992 h -66.23318 -66.23319 z"
       id="path6" />
    <path
       style="fill:#feffd2;stroke-width:2.49937"
       d="m 832.27247,220.10825 c -29.54796,-8.98808 -49.83337,-36.49252 -49.89181,-67.64696 -0.0689,-36.72246 26.49261,-66.060289 62.78853,-69.351488 28.61799,-2.594988 54.93797,11.764386 67.69268,36.931058 9.2715,18.29383 11.00649,33.12668 5.92104,50.62004 -8.71042,29.96277 -36.96752,52.00988 -66.09287,51.56779 -7.78413,-0.11816 -16.97204,-1.07235 -20.41757,-2.12044 z"
       id="path7" />
    <path
       style="fill:#feffd2;stroke-width:2.49937"
       d="m 932.26327,150.90557 c 0,-52.849987 0.64275,-66.043587 3.1242,-64.130111 1.71832,1.325008 16.23435,12.709867 32.25785,25.299691 16.02349,12.58982 29.80125,22.89058 30.61722,22.89058 0.81598,0 1.48359,-10.68479 1.48359,-23.74397 V 87.477787 h 32.49177 32.4917 v 64.983503 64.98349 h -66.23315 -66.23318 z"
       id="path8" />
    <path
       style="fill:#feffd2;stroke-width:2.49937"
       d="M 1077.2265,152.46129 V 87.477787 h 33.7414 33.7414 v 64.983503 64.98349 h -33.7414 -33.7414 z"
       id="path9" />
    <path
       style="fill:#feffd2;stroke-width:2.49937"
       d="m 1152.624,214.9585 c 1.6096,-4.80365 78.3279,-134.822174 79.5631,-134.839831 1.4528,-0.02077 79.9797,133.176491 79.9797,135.661511 0,0.91553 -36.0846,1.6646 -80.188,1.6646 -52.0694,0 -79.8958,-0.87183 -79.3548,-2.48628 z"
       id="path10" />
    <path
       style="fill:#feffd2;stroke-width:2.49937"
       d="M 1317.1655,152.46129 V 87.477787 h 32.4192 32.4192 l 0.6974,33.116593 0.6974,33.11659 18.1204,0.73434 18.1204,0.73433 v 31.13257 31.13257 h -51.237 -51.237 z"
       id="path11" />
    <path
       style="fill:#feffd2;stroke-width:2.49937"
       d="m 1432.1363,187.66367 v -32.70302 h 13.7465 c 15.7323,0 17.6043,-2.59955 5.1225,-7.11306 -13.27,-4.79849 -21.3683,-16.02162 -21.3683,-29.61354 0,-9.85119 1.2809,-12.63037 9.7034,-21.052845 l 9.7034,-9.703418 h 55.2801 55.2801 v 32.354803 32.35481 l -11.872,0.82372 c -11.2427,0.78006 -11.5291,0.97464 -5.402,3.67082 23.456,10.32167 26.6095,42.98032 5.5297,57.26748 -6.2369,4.22718 -12.9339,4.8363 -61.3622,5.58116 l -54.3612,0.83612 z"
       id="path12" />
  </g>
</svg>
