<?xml version="1.0" encoding="UTF-8" standalone="no"?>
<svg
   id="Layer_1"
   version="1.1"
   viewBox="0 0 32 32"
   sodipodi:docname="favicon.svg"
   inkscape:version="1.4 (e7c3feb1, 2024-10-09)"
   width="32"
   height="32"
   inkscape:export-filename="favicon.png"
   inkscape:export-xdpi="96"
   inkscape:export-ydpi="96"
   xmlns:inkscape="http://www.inkscape.org/namespaces/inkscape"
   xmlns:sodipodi="http://sodipodi.sourceforge.net/DTD/sodipodi-0.dtd"
   xmlns="http://www.w3.org/2000/svg"
   xmlns:svg="http://www.w3.org/2000/svg">
  <sodipodi:namedview
     id="namedview5"
     pagecolor="#ffffff"
     bordercolor="#000000"
     borderopacity="0.25"
     inkscape:showpageshadow="2"
     inkscape:pageopacity="0.0"
     inkscape:pagecheckerboard="0"
     inkscape:deskcolor="#d1d1d1"
     inkscape:zoom="11.189055"
     inkscape:cx="8.8926187"
     inkscape:cy="19.03646"
     inkscape:window-width="1472"
     inkscape:window-height="805"
     inkscape:window-x="0"
     inkscape:window-y="37"
     inkscape:window-maximized="0"
     inkscape:current-layer="g1" />
  <!-- Generator: Adobe Illustrator 29.3.1, SVG Export Plug-In . SVG Version: 2.1.0 Build 151)  -->
  <defs
     id="defs1">
    <style
       id="style1">
      .st0 {
        fill: #fbf9d3;
      }
    </style>
  </defs>
  <g
     id="g2"
     sodipodi:insensitive="true"
     style="display:none">
    <rect
       class="st0"
       x="1387.11"
       y="1226.5601"
       width="115.5"
       height="115.5"
       id="rect1" />
    <path
       class="st0"
       d="m 1333.77,752.28 v 293.33 h -114.6 v 296.44 H 922.75 V 1047.59 H 802.03 V 752.28 Z"
       id="path1" />
    <path
       class="st0"
       d="M 455.09,1342.83 V 752.08 h 302.9 v 590.75 z"
       id="path2" />
  </g>
  <g
     id="g5"
     sodipodi:insensitive="true"
     style="display:none">
    <path
       class="st0"
       d="M 62.42,365.56 V 70.49 H 594.18 V 364.55 H 479.91 V 660.73 H 183.47 V 365.56 Z"
       id="path3" />
    <path
       class="st0"
       d="M 1786.66,661.04 C 1678.81,463.5 1572.42,268.64 1464.23,70.49 1355.79,268.99 1138.45,661.04 1138.45,661.04 h 648.2 z"
       id="path4" />
    <path
       class="st0"
       d="M 1111.37,654.23 V 365.57 H 946.8 V 70.56 H 653.46 v 590.48 h 458.04 c 0,0 -0.09,-6.8 -0.14,-6.81 z"
       id="path5" />
  </g>
  <g
     inkscape:groupmode="layer"
     id="layer1"
     inkscape:label="Layer 1"
     style="display:none"
     sodipodi:insensitive="true">
    <path
       style="fill:#ff7d29;stroke-width:3.41893"
       d="m 445.67146,1005.783 c 0,-0.6486 34.6545,-63.81364 77.0099,-140.36663 42.3554,-76.55303 114.0077,-206.4117 159.2273,-288.57486 45.2196,-82.16316 83.3584,-150.56282 84.753,-151.99923 1.3945,-1.43642 72.4397,125.38154 157.87832,281.81769 85.43852,156.43614 157.31512,288.00078 159.72572,292.36587 l 4.3828,7.93646 H 767.15996 c -176.8186,0 -321.4885,-0.5307 -321.4885,-1.1793 z"
       id="path13" />
    <path
       style="fill:#ff7d29;stroke-width:3.41893"
       d="m 1228.8246,950.55003 v -56.4123 h 56.4123 56.4123 v 56.4123 56.41227 h -56.4123 -56.4123 z"
       id="path16" />
  </g>
  <g
     inkscape:groupmode="layer"
     id="layer2"
     inkscape:label="Layer 2">
    <g
       id="g1"
       transform="scale(0.032)">
      <rect
         style="fill:#feffd2;fill-opacity:1"
         id="rect17"
         width="1000"
         height="1000"
         x="0"
         y="0"
         ry="304.42697" />
      <path
         style="fill:#ff7d29;stroke-width:4.77068"
         d="m 248.14658,715.855 c 6.20201,-11.15148 64.88611,-117.40179 130.40909,-236.11179 65.52298,-118.71 120.32468,-215.8531 121.78155,-215.87357 3.29181,-0.0463 40.34603,66.46516 243.83263,437.6733 l 18.95993,34.58744 H 500.00001 236.87021 Z"
         id="path17" />
    </g>
  </g>
</svg>
